<svg width="18" height="17" viewBox="0 0 18 17" fill="none" xmlns="http://www.w3.org/2000/svg">
<path d="M6.91872 2.04768C6.66561 1.41492 6.05276 1 5.37126 1H3.07895C2.20692 1 1.5 1.70675 1.5 2.57878C1.5 9.99102 7.50898 16 14.9212 16C15.7933 16 16.5 15.293 16.5 14.421L16.5004 12.1283C16.5004 11.4468 16.0856 10.834 15.4528 10.5809L13.2558 9.70245C12.6874 9.47509 12.0402 9.57741 11.57 9.96932L11.0029 10.4422C10.3407 10.9941 9.36636 10.9502 8.75683 10.3407L7.16018 8.74255C6.55065 8.13302 6.50561 7.15945 7.05745 6.49724L7.53027 5.93025C7.92218 5.45996 8.02541 4.81263 7.79805 4.24424L6.91872 2.04768Z" stroke="#0D0D0D" stroke-width="2" stroke-linecap="round" stroke-linejoin="round"/>
</svg>
