<svg width="18" height="19" viewBox="0 0 18 19" fill="none" xmlns="http://www.w3.org/2000/svg">
<path d="M9 1.85547C7.55373 1.85547 6.13993 2.28434 4.9374 3.08785C3.73486 3.89136 2.7976 5.03341 2.24413 6.3696C1.69067 7.70578 1.54586 9.17608 1.82801 10.5946C2.11017 12.0131 2.80661 13.316 3.82928 14.3387C4.85196 15.3614 6.15492 16.0578 7.57341 16.34C8.99189 16.6221 10.4622 16.4773 11.7984 15.9238C13.1346 15.3704 14.2766 14.4331 15.0801 13.2306C15.8836 12.028 16.3125 10.6142 16.3125 9.16797C16.3105 7.2292 15.5394 5.37043 14.1685 3.99951C12.7975 2.6286 10.9388 1.85752 9 1.85547ZM9 15.3555C7.77623 15.3555 6.57994 14.9926 5.56241 14.3127C4.54488 13.6328 3.75182 12.6664 3.2835 11.5358C2.81518 10.4052 2.69265 9.16111 2.93139 7.96085C3.17014 6.76059 3.75944 5.65808 4.62478 4.79275C5.49012 3.92741 6.59262 3.33811 7.79288 3.09936C8.99314 2.86061 10.2372 2.98315 11.3679 3.45146C12.4985 3.91978 13.4648 4.71285 14.1447 5.73038C14.8246 6.74791 15.1875 7.9442 15.1875 9.16797C15.1856 10.8084 14.5331 12.3812 13.3732 13.5411C12.2132 14.7011 10.6405 15.3536 9 15.3555ZM6.75 9.16797C6.75 9.6402 6.89859 10.1005 7.17471 10.4836C7.45083 10.8667 7.84049 11.1532 8.28849 11.3025C8.73649 11.4518 9.22013 11.4564 9.67088 11.3156C10.1216 11.1748 10.5167 10.8958 10.8 10.518C10.8896 10.3986 11.023 10.3198 11.1707 10.2987C11.3185 10.2777 11.4685 10.3162 11.5879 10.4058C11.7072 10.4954 11.7861 10.6288 11.8071 10.7765C11.8281 10.9243 11.7896 11.0743 11.7 11.1937C11.2749 11.7602 10.6823 12.1786 10.0062 12.3896C9.33011 12.6007 8.60475 12.5937 7.93285 12.3696C7.26094 12.1456 6.67656 11.7158 6.26246 11.1412C5.84836 10.5666 5.62553 9.87625 5.62553 9.16797C5.62553 8.45969 5.84836 7.76936 6.26246 7.19475C6.67656 6.62014 7.26094 6.19037 7.93285 5.9663C8.60475 5.74224 9.33011 5.73524 10.0062 5.94629C10.6823 6.15734 11.2749 6.57575 11.7 7.14227C11.7444 7.20136 11.7767 7.26862 11.795 7.34019C11.8134 7.41177 11.8175 7.48626 11.8071 7.55942C11.7967 7.63258 11.772 7.70297 11.7343 7.76657C11.6967 7.83018 11.6469 7.88575 11.5879 7.93012C11.5288 7.97448 11.4615 8.00678 11.3899 8.02515C11.3184 8.04353 11.2439 8.04763 11.1707 8.03721C11.0975 8.0268 11.0272 8.00208 10.9635 7.96446C10.8999 7.92684 10.8444 7.87706 10.8 7.81797C10.5167 7.44018 10.1216 7.16112 9.67088 7.02031C9.22013 6.87951 8.73649 6.8841 8.28849 7.03343C7.84049 7.18277 7.45083 7.46927 7.17471 7.85237C6.89859 8.23547 6.75 8.69573 6.75 9.16797Z" fill="#FCFCFC"/>
</svg>
