<svg width="45" height="45" viewBox="0 0 45 45" fill="none" xmlns="http://www.w3.org/2000/svg">
<rect x="0.580842" y="0.580842" width="43.8383" height="43.8383" rx="21.9192" fill="#FCFCFC"/>
<rect x="0.580842" y="0.580842" width="43.8383" height="43.8383" rx="21.9192" stroke="#ADD942" stroke-width="1.16168"/>
<path d="M19.1981 32.4049H25.8014M22.4997 12.5951C18.8529 12.5951 15.8965 15.5515 15.8965 19.1984C15.8965 20.535 16.2936 21.7788 16.9763 22.8184C18.0261 24.4169 18.5506 25.2157 18.6187 25.3351C19.2248 26.397 19.1132 26.0225 19.1895 27.2429C19.1981 27.38 19.1981 27.5877 19.1981 28.0027C19.1981 28.6105 19.6908 29.1032 20.2987 29.1032L24.7008 29.1032C25.3086 29.1032 25.8014 28.6105 25.8014 28.0027C25.8014 27.5877 25.8014 27.38 25.81 27.2429C25.8862 26.0225 25.774 26.397 26.3801 25.3351C26.4483 25.2157 26.9736 24.4169 28.0234 22.8184C28.7061 21.7788 29.1032 20.535 29.1032 19.1984C29.1032 15.5515 26.1466 12.5951 22.4997 12.5951Z" stroke="#ADD942" stroke-width="2.20109" stroke-linecap="round" stroke-linejoin="round"/>
</svg>
