<svg width="45" height="45" viewBox="0 0 45 45" fill="none" xmlns="http://www.w3.org/2000/svg">
<rect x="0.580842" y="0.580842" width="43.8383" height="43.8383" rx="21.9192" fill="#FCFCFC"/>
<rect x="0.580842" y="0.580842" width="43.8383" height="43.8383" rx="21.9192" stroke="#ADD942" stroke-width="1.16168"/>
<path d="M25.8014 28.0027V29.1033C25.8014 30.9267 24.3232 32.4049 22.4998 32.4049C20.6764 32.4049 19.1982 30.9267 19.1982 29.1033V28.0027M25.8014 28.0027H19.1982M25.8014 28.0027H29.7529C30.1739 28.0028 30.3854 28.0028 30.5559 27.9453C30.8815 27.8354 31.1363 27.5797 31.2461 27.2541C31.3038 27.083 31.3038 26.8708 31.3038 26.4465C31.3038 26.2608 31.3036 26.168 31.2891 26.0795C31.2617 25.9122 31.1967 25.7536 31.0979 25.6159C31.0456 25.5432 30.9792 25.4767 30.8483 25.3459L30.4196 24.9171C30.2813 24.7788 30.2036 24.5912 30.2036 24.3956V20.2989C30.2036 16.0442 26.7545 12.5951 22.4998 12.5951C18.2451 12.5952 14.796 16.0443 14.796 20.2989V24.3956C14.796 24.5912 14.7181 24.7788 14.5798 24.9171L14.1512 25.3458C14.0199 25.4771 13.9541 25.5431 13.9018 25.6159C13.8029 25.7536 13.7374 25.9122 13.71 26.0795C13.6955 26.168 13.6955 26.2609 13.6955 26.4465C13.6955 26.8709 13.6955 27.083 13.7532 27.2541C13.863 27.5797 14.1189 27.8354 14.4446 27.9453C14.615 28.0028 14.8257 28.0028 15.2467 28.0027H19.1982M29.1235 11.5096C30.6414 12.6535 31.8372 14.1709 32.5944 15.9141M15.8767 11.5096C14.3588 12.6535 13.163 14.1709 12.4058 15.9141" stroke="#ADD942" stroke-width="2.20109" stroke-linecap="round" stroke-linejoin="round"/>
</svg>
