<svg width="185" height="35" viewBox="0 0 185 35" fill="none" xmlns="http://www.w3.org/2000/svg">
<rect x="0.5" y="0.5" width="34" height="34" rx="17" stroke="#8FBF23"/>
<path d="M21.437 18.5687L21.9166 15.4734H18.9626V13.4615C18.9626 12.6151 19.375 11.7881 20.6937 11.7881H22.0556V9.1523C21.2625 9.02382 20.4611 8.95431 19.6579 8.94434C17.2267 8.94434 15.6394 10.4291 15.6394 13.1133V15.4734H12.9443V18.5687H15.6394V26.0554H18.9626V18.5687H21.437Z" fill="#8FBF23"/>
<rect x="50.5" y="0.5" width="34" height="34" rx="17" stroke="#8FBF23"/>
<path d="M73.5059 26.1705C74.736 25.6952 75.7084 24.7228 76.1837 23.4927C76.4087 22.91 76.5662 22.2452 76.6089 21.2728C76.619 21.045 76.6269 20.8537 76.6342 20.662V14.1647C76.6292 14.0291 76.6235 13.8879 76.6162 13.7293C76.5735 12.7569 76.416 12.0887 76.191 11.5094C75.9587 10.8946 75.601 10.344 75.1331 9.88675C74.6752 9.42162 74.1212 9.06053 73.5132 8.83218C72.9306 8.60721 72.2658 8.44972 71.2933 8.40698C70.3135 8.3603 70.0025 8.34961 67.5182 8.34961C65.0339 8.34961 64.7223 8.3603 63.7465 8.40304C62.774 8.44579 62.1059 8.60327 61.5266 8.82825C60.9118 9.06053 60.3612 9.41824 59.9034 9.88675C59.4388 10.3446 59.0777 10.8986 58.8488 11.506C58.6238 12.0887 58.4663 12.7535 58.4236 13.726C58.3769 14.7057 58.3662 15.0168 58.3662 17.5016C58.3662 19.9865 58.3769 20.2975 58.4196 21.2733C58.4624 22.2458 58.6199 22.9145 58.8454 23.4933C59.0777 24.108 59.4388 24.6586 59.9034 25.1165C60.3612 25.581 60.9152 25.9427 61.5232 26.171C62.1059 26.396 62.7707 26.5535 63.7431 26.5962C64.719 26.6395 65.03 26.6502 67.5148 26.6502C69.9997 26.6502 70.3102 26.6395 71.2865 26.5962C72.259 26.5535 72.9266 26.3954 73.5059 26.1705ZM67.5216 25.0051C65.0795 25.0051 64.7864 24.9944 63.8247 24.9517C62.931 24.9123 62.4484 24.7621 62.1267 24.6373C61.7302 24.4905 61.3691 24.2582 61.0755 23.9545C60.7718 23.6575 60.5389 23.3003 60.3927 22.9033C60.2678 22.5816 60.1176 22.095 60.0783 21.2053C60.0355 20.2401 60.0248 19.9505 60.0248 17.5084C60.0248 15.0663 60.0355 14.7732 60.0783 13.812C60.1176 12.9183 60.2678 12.4357 60.3927 12.114C60.5395 11.7169 60.7718 11.3558 61.0794 11.0628C61.3758 10.7591 61.7335 10.5268 62.13 10.38C62.4518 10.2552 62.9383 10.105 63.8281 10.0656C64.7932 10.0229 65.0829 10.0122 67.5244 10.0122C69.9659 10.0122 70.2595 10.0229 71.2213 10.0656C72.115 10.105 72.5976 10.2552 72.9193 10.38C73.3158 10.5268 73.6769 10.7591 73.9699 11.0628C74.2737 11.3598 74.5065 11.7169 74.6527 12.114C74.7776 12.4357 74.9278 12.9217 74.9671 13.812C75.0099 14.7772 75.0206 15.0668 75.0206 17.5084C75.0206 19.9499 75.0099 20.2362 74.9671 21.2013C74.9278 22.095 74.7776 22.5776 74.6527 22.8993C74.3451 23.6969 73.7123 24.3296 72.9154 24.6367C72.5937 24.7616 72.1077 24.9117 71.2174 24.9511C70.2522 24.9939 69.9631 25.0051 67.5216 25.0051Z" fill="#8FBF23"/>
<path d="M67.5184 12.7997C64.9227 12.7997 62.817 14.9054 62.817 17.5011C62.817 20.0967 64.9227 22.2025 67.5184 22.2025C70.1141 22.2025 72.2193 20.0967 72.2193 17.5011C72.2193 14.9054 70.1135 12.7997 67.5184 12.7997ZM67.5184 20.5501C65.8345 20.5501 64.4689 19.1845 64.4689 17.5005C64.4689 15.8166 65.8345 14.451 67.5184 14.451C69.2023 14.451 70.5679 15.8166 70.5679 17.5005C70.5679 19.1845 69.2023 20.5501 67.5184 20.5501Z" fill="#8FBF23"/>
<path d="M73.5015 12.6138C73.5015 12.0075 73.01 11.5165 72.4037 11.5165C71.7974 11.5165 71.3063 12.008 71.3063 12.6138C71.3063 13.2195 71.7979 13.7111 72.4037 13.7111C73.0094 13.7111 73.5015 13.2201 73.5015 12.6138Z" fill="#8FBF23"/>
<rect x="100.5" y="0.5" width="34" height="34" rx="17" stroke="#8FBF23"/>
<g clip-path="url(#clip0_157_368)">
<path d="M118.927 16.3522L124.508 10H123.186L118.338 15.5144L114.47 10H110.006L115.858 18.3395L110.006 24.9999H111.328L116.444 19.1753L120.531 24.9999H124.994M111.805 10.9762H113.836L123.185 24.0717H121.154" fill="#8FBF23"/>
</g>
<rect x="150.5" y="0.5" width="34" height="34" rx="17" stroke="#8FBF23"/>
<path d="M163.432 24.6276V15.009H160.238V24.6276H163.432ZM161.836 13.696C162.95 13.696 163.643 12.9574 163.643 12.0344C163.622 11.0903 162.95 10.3723 161.857 10.3723C160.764 10.3723 160.05 11.0903 160.05 12.0343C160.05 12.9573 160.743 13.6959 161.815 13.6959L161.836 13.696ZM165.2 24.6276H168.394V19.2567C168.394 18.9696 168.415 18.6818 168.5 18.4767C168.73 17.9021 169.256 17.3073 170.139 17.3073C171.294 17.3073 171.757 18.1893 171.757 19.4825V24.6276H174.95V19.1126C174.95 16.1583 173.375 14.7835 171.273 14.7835C169.55 14.7835 168.794 15.7474 168.373 16.4038H168.395V15.0093H165.201C165.242 15.9117 165.2 24.6276 165.2 24.6276Z" fill="#8FBF23"/>
<defs>
<clipPath id="clip0_157_368">
<rect width="14.9875" height="15" fill="white" transform="translate(110.006 10)"/>
</clipPath>
</defs>
</svg>
